<?xml version="1.0" encoding="iso-8859-1"?>
<!-- Generator: Adobe Illustrator 19.0.0, SVG Export Plug-In . SVG Version: 6.00 Build 0)  -->
<svg version="1.1" id="Layer_1" xmlns="http://www.w3.org/2000/svg" xmlns:xlink="http://www.w3.org/1999/xlink" x="0px" y="0px"
	 viewBox="0 0 512 512" style="enable-background:new 0 0 512 512;" xml:space="preserve">
<rect x="122.879" y="105.813" style="fill:#1E2E3B;" width="150.187" height="68.267"/>
<polygon style="fill:#78B9EB;" points="395.947,324.267 0,324.267 0,174.08 40.96,146.773 354.987,146.773 395.947,174.08 "/>
<path style="fill:#1E2E3B;" d="M491.52,215.04H512v-40.96h-20.48c-26.699,0-49.463,17.123-57.917,40.96H389.12V256h44.483
	c8.454,23.837,31.218,40.96,57.917,40.96H512V256h-20.48c-11.294,0-20.48-9.187-20.48-20.48
	C471.04,224.227,480.226,215.04,491.52,215.04z"/>
<polygon style="fill:#5A8BB0;" points="354.987,146.773 197.973,146.773 197.973,324.267 395.947,324.267 395.947,174.08 "/>
<g>
	<rect x="218.453" y="215.04" style="fill:#1E2E3B;" width="109.227" height="40.96"/>
	<rect x="68.267" y="215.04" style="fill:#1E2E3B;" width="109.227" height="40.96"/>
</g>
<path style="fill:#3C5D76;" d="M375.467,344.747c0,33.933-27.507,61.44-61.44,61.44H81.92c-33.933,0-61.44-27.507-61.44-61.44l0,0
	c0-33.934,27.507-61.44,61.44-61.44h232.105C347.959,283.307,375.467,310.813,375.467,344.747L375.467,344.747z"/>
<path style="fill:#1E2E3B;" d="M314.025,283.307H197.972v122.88h116.053c33.934,0,61.44-27.507,61.44-61.44
	S347.959,283.307,314.025,283.307z"/>
<g>
	<circle style="fill:#5A8BB0;" cx="314.027" cy="344.747" r="20.48"/>
	<circle style="fill:#5A8BB0;" cx="197.973" cy="344.747" r="20.48"/>
	<circle style="fill:#5A8BB0;" cx="81.92" cy="344.747" r="20.48"/>
</g>
<g>
</g>
<g>
</g>
<g>
</g>
<g>
</g>
<g>
</g>
<g>
</g>
<g>
</g>
<g>
</g>
<g>
</g>
<g>
</g>
<g>
</g>
<g>
</g>
<g>
</g>
<g>
</g>
<g>
</g>
</svg>
