<?xml version="1.0" encoding="iso-8859-1"?>
<!-- Generator: Adobe Illustrator 19.0.0, SVG Export Plug-In . SVG Version: 6.00 Build 0)  -->
<svg version="1.1" id="Layer_1" xmlns="http://www.w3.org/2000/svg" xmlns:xlink="http://www.w3.org/1999/xlink" x="0px" y="0px"
	 viewBox="0 0 512 512" style="enable-background:new 0 0 512 512;" xml:space="preserve">
<path style="fill:#959CB3;" d="M361.931,326.621L361.931,326.621c4.875,0,8.828,3.953,8.828,8.828v26.483
	c0,4.875-3.953,8.828-8.828,8.828l0,0c-4.875,0-8.828-3.953-8.828-8.828v-26.483C353.103,330.573,357.056,326.621,361.931,326.621z"
	/>
<path style="fill:#E4EAF6;" d="M282.483,176.552l218.2,83.923c6.818,2.623,11.317,9.173,11.317,16.479v67.322l-229.517-17.655
	L282.483,176.552L282.483,176.552z"/>
<g>
	<path style="fill:#C7CFE2;" d="M503.172,273.655L503.172,273.655c4.875,0,8.828,3.953,8.828,8.828v61.793
		c0,4.875-3.953,8.828-8.828,8.828l0,0c-4.875,0-8.828-3.953-8.828-8.828v-61.793C494.345,277.608,498.297,273.655,503.172,273.655z
		"/>
	<path style="fill:#C7CFE2;" d="M361.931,220.69L361.931,220.69c4.875,0,8.828,3.953,8.828,8.828v114.759
		c0,4.875-3.953,8.828-8.828,8.828l0,0c-4.875,0-8.828-3.953-8.828-8.828V229.517C353.103,224.642,357.056,220.69,361.931,220.69z"
		/>
</g>
<path style="fill:#707487;" d="M264.828,423.724h-17.655c-4.875,0-8.828-3.953-8.828-8.828l0,0c0-4.875,3.953-8.828,8.828-8.828
	h17.655c4.875,0,8.828,3.953,8.828,8.828l0,0C273.655,419.772,269.703,423.724,264.828,423.724z"/>
<path style="fill:#959CB3;" d="M150.069,326.621L150.069,326.621c-4.875,0-8.828,3.953-8.828,8.828v26.483
	c0,4.875,3.953,8.828,8.828,8.828l0,0c4.875,0,8.828-3.953,8.828-8.828v-26.483C158.897,330.573,154.944,326.621,150.069,326.621z"
	/>
<path style="fill:#E4EAF6;" d="M229.517,176.552l-218.2,83.923C4.499,263.097,0,269.647,0,276.953v67.322l229.517-17.655V176.552z"
	/>
<path style="fill:#C7CFE2;" d="M282.483,158.897h-52.966v160.941c0,4.509,0.493,9.004,1.472,13.405l14.647,65.915
	c0.897,4.039,4.48,6.913,8.617,6.913h3.492c4.138,0,7.72-2.873,8.618-6.913l14.647-65.914c0.978-4.402,1.472-8.896,1.472-13.405
	V158.897z"/>
<path style="fill:#E4EAF6;" d="M282.483,158.897h-52.966c-4.875,0-8.828-3.953-8.828-8.828v-35.31
	c0-14.626,11.857-26.483,26.483-26.483h17.655c14.626,0,26.483,11.857,26.483,26.483v35.31
	C291.31,154.944,287.358,158.897,282.483,158.897z"/>
<circle style="fill:#464655;" cx="256" cy="123.586" r="17.655"/>
<rect x="229.517" y="158.897" style="fill:#959CB3;" width="52.966" height="17.655"/>
<g>
	<path style="fill:#C7CFE2;" d="M8.828,273.655L8.828,273.655c-4.875,0-8.828,3.953-8.828,8.828v61.793
		c0,4.875,3.953,8.828,8.828,8.828l0,0c4.875,0,8.828-3.953,8.828-8.828v-61.793C17.655,277.608,13.703,273.655,8.828,273.655z"/>
	<path style="fill:#C7CFE2;" d="M150.069,220.69L150.069,220.69c-4.875,0-8.828,3.953-8.828,8.828v114.759
		c0,4.875,3.953,8.828,8.828,8.828l0,0c4.875,0,8.828-3.953,8.828-8.828V229.517C158.897,224.642,154.944,220.69,150.069,220.69z"/>
</g>
<path style="fill:#464655;" d="M291.31,414.897H220.69c-4.875,0-8.828-3.953-8.828-8.828l0,0c0-4.875,3.953-8.828,8.828-8.828
	h70.621c4.875,0,8.828,3.953,8.828,8.828l0,0C300.138,410.944,296.185,414.897,291.31,414.897z"/>
<g>
</g>
<g>
</g>
<g>
</g>
<g>
</g>
<g>
</g>
<g>
</g>
<g>
</g>
<g>
</g>
<g>
</g>
<g>
</g>
<g>
</g>
<g>
</g>
<g>
</g>
<g>
</g>
<g>
</g>
</svg>
