<?xml version="1.0" encoding="iso-8859-1"?>
<!-- Generator: Adobe Illustrator 19.0.0, SVG Export Plug-In . SVG Version: 6.00 Build 0)  -->
<svg version="1.1" id="Layer_1" xmlns="http://www.w3.org/2000/svg" xmlns:xlink="http://www.w3.org/1999/xlink" x="0px" y="0px"
	 viewBox="0 0 512.001 512.001" style="enable-background:new 0 0 512.001 512.001;" xml:space="preserve">
<g>
	<circle style="fill:#D9F3FF;" cx="97.104" cy="242.758" r="44.136"/>
	<circle style="fill:#D9F3FF;" cx="423.723" cy="242.758" r="44.136"/>
</g>
<path style="fill:#B8E9FF;" d="M97.104,233.932L97.104,233.932c-4.875,0-8.828,3.953-8.828,8.828v114.758
	c0,4.875,3.953,8.828,8.828,8.828l0,0c4.875,0,8.828-3.953,8.828-8.828V242.759C105.932,237.884,101.979,233.932,97.104,233.932z"/>
<g>
	<path style="fill:#D9F3FF;" d="M97.104,384L97.104,384c-4.875,0-8.828,3.953-8.828,8.828v35.31c0,4.875,3.953,8.828,8.828,8.828
		l0,0c4.875,0,8.828-3.953,8.828-8.828v-35.31C105.932,387.952,101.979,384,97.104,384z"/>
	<path style="fill:#D9F3FF;" d="M132.414,339.862L132.414,339.862c-4.875,0-8.828,3.953-8.828,8.828v17.655
		c0,4.875,3.953,8.828,8.828,8.828l0,0c4.875,0,8.828-3.953,8.828-8.828V348.69C141.242,343.815,137.289,339.862,132.414,339.862z"
		/>
	<path style="fill:#D9F3FF;" d="M61.794,339.862L61.794,339.862c-4.875,0-8.828,3.953-8.828,8.828v17.655
		c0,4.875,3.953,8.828,8.828,8.828l0,0c4.875,0,8.828-3.953,8.828-8.828V348.69C70.621,343.815,66.669,339.862,61.794,339.862z"/>
</g>
<g>
	<path style="fill:#B8E9FF;" d="M61.794,233.932L61.794,233.932c-4.875,0-8.828,3.953-8.828,8.828v70.62
		c0,4.875,3.953,8.828,8.828,8.828l0,0c4.875,0,8.828-3.953,8.828-8.828v-70.62C70.621,237.884,66.669,233.932,61.794,233.932z"/>
	<path style="fill:#B8E9FF;" d="M132.414,233.932L132.414,233.932c-4.875,0-8.828,3.953-8.828,8.828v70.62
		c0,4.875,3.953,8.828,8.828,8.828l0,0c4.875,0,8.828-3.953,8.828-8.828v-70.62C141.242,237.884,137.289,233.932,132.414,233.932z"
		/>
	<path style="fill:#B8E9FF;" d="M423.723,233.932L423.723,233.932c-4.875,0-8.828,3.953-8.828,8.828v114.758
		c0,4.875,3.953,8.828,8.828,8.828l0,0c4.875,0,8.828-3.953,8.828-8.828V242.759C432.551,237.884,428.598,233.932,423.723,233.932z"
		/>
</g>
<g>
	<path style="fill:#D9F3FF;" d="M423.723,384L423.723,384c-4.875,0-8.828,3.953-8.828,8.828v35.31c0,4.875,3.953,8.828,8.828,8.828
		l0,0c4.875,0,8.828-3.953,8.828-8.828v-35.31C432.551,387.952,428.598,384,423.723,384z"/>
	<path style="fill:#D9F3FF;" d="M459.033,339.862L459.033,339.862c-4.875,0-8.828,3.953-8.828,8.828v17.655
		c0,4.875,3.953,8.828,8.828,8.828l0,0c4.875,0,8.828-3.953,8.828-8.828V348.69C467.861,343.815,463.908,339.862,459.033,339.862z"
		/>
	<path style="fill:#D9F3FF;" d="M388.413,339.862L388.413,339.862c-4.875,0-8.828,3.953-8.828,8.828v17.655
		c0,4.875,3.953,8.828,8.828,8.828l0,0c4.875,0,8.828-3.953,8.828-8.828V348.69C397.241,343.815,393.288,339.862,388.413,339.862z"
		/>
</g>
<g>
	<path style="fill:#B8E9FF;" d="M388.413,233.932L388.413,233.932c-4.875,0-8.828,3.953-8.828,8.828v70.62
		c0,4.875,3.953,8.828,8.828,8.828l0,0c4.875,0,8.828-3.953,8.828-8.828v-70.62C397.241,237.884,393.288,233.932,388.413,233.932z"
		/>
	<path style="fill:#B8E9FF;" d="M459.033,233.932L459.033,233.932c-4.875,0-8.828,3.953-8.828,8.828v70.62
		c0,4.875,3.953,8.828,8.828,8.828l0,0c4.875,0,8.828-3.953,8.828-8.828v-70.62C467.861,237.884,463.908,233.932,459.033,233.932z"
		/>
</g>
<path style="fill:#00F0F5;" d="M489.799,151.338c-16.628-10.241-61.431-23.337-136.693-23.337l-30.903-37.083
	c-8.386-10.063-20.809-15.882-33.908-15.882H164.217c-9.199,0-18.168,2.874-25.654,8.222L88.28,119.173l-63.743,7.083
	c-8.941,0.993-15.705,8.551-15.705,17.547v63.646l123.586,17.655h370.757v-49.903C503.173,165.442,498.109,156.456,489.799,151.338z
	"/>
<g>
	<path style="fill:#00D2D7;" d="M353.105,128.001l-30.904-37.085c-8.386-10.063-20.808-15.881-33.907-15.881H164.217
		c-9.199,0-18.169,2.874-25.655,8.222l-50.283,35.916c-0.003,0.042,1.71,0.314,4.57,0.74c36.469,5.432,73.297,8.087,110.168,8.087
		C203.017,128.001,353.105,128.001,353.105,128.001z"/>
	<path style="fill:#00D2D7;" d="M503.173,180.966c0-17.655-26.483-35.31-150.068-35.31H20.98c-6.71,0-12.149,5.439-12.149,12.149
		v58.471l158.896,17.655h335.447V180.966z"/>
</g>
<path style="fill:#00A5B4;" d="M503.173,216.277H97.106c-0.049,0-0.088,0.026-0.137,0.028c0.001-4.441-3.201-8.3-7.717-8.799
	l-79.448-8.828c-4.733-0.543-9.207,2.953-9.75,7.797c-0.534,4.845,2.957,9.212,7.801,9.746l79.448,8.828
	c0.324,0.039,0.649,0.055,0.974,0.055l0,0c0,4.875,3.948,8.828,8.828,8.828h406.067c4.879,0,8.828-3.953,8.828-8.828
	S508.053,216.277,503.173,216.277z"/>
<g>
	<path style="fill:#5B5D6E;" d="M314.732,83.863h-13.934c-3.822,0-5.948,4.421-3.56,7.406l29.385,36.731h26.483l-30.903-37.083
		C319.98,88.251,317.458,85.905,314.732,83.863z"/>
	<path style="fill:#5B5D6E;" d="M265.172,83.863h-76.847c-7.64,0-15.074,2.478-21.186,7.062l-19.242,14.431
		c-3.732,2.799-4.628,8.026-2.04,11.908l5.967,8.951c17.035,1.152,34.107,1.785,51.193,1.785h105.952l-30.009-37.512
		C275.607,86.301,270.536,83.863,265.172,83.863z"/>
</g>
<g>
	<path style="fill:#00B9BE;" d="M353.105,198.621H167.727c-4.875,0-8.828-3.953-8.828-8.828l0,0c0-4.875,3.953-8.828,8.828-8.828
		h185.378c4.875,0,8.828,3.953,8.828,8.828l0,0C361.933,194.669,357.98,198.621,353.105,198.621z"/>
	<path style="fill:#00B9BE;" d="M503.173,198.621h-8.828c-4.875,0-8.828-3.953-8.828-8.828l0,0c0-4.875,3.953-8.828,8.828-8.828
		h8.828c4.875,0,8.828,3.953,8.828,8.828l0,0C512.001,194.669,508.048,198.621,503.173,198.621z"/>
</g>
<g>
	<path style="fill:#5B5D6E;" d="M44.139,233.932h105.931c0,0,0.002-11.457,0.002-17.655c0-29.207-23.758-52.965-52.965-52.965
		s-52.965,23.758-52.965,52.965c0,1.367,0.103,2.709,0.205,4.051L44.139,233.932z"/>
	<path style="fill:#5B5D6E;" d="M370.758,233.932h105.931c0,0,0.002-11.457,0.002-17.655c0-29.207-23.758-52.965-52.965-52.965
		c-29.207,0-52.965,23.758-52.965,52.965c0,1.367,0.103,2.709,0.205,4.051L370.758,233.932z"/>
</g>
<circle style="fill:#707487;" cx="97.104" cy="216.275" r="26.48"/>
<path style="fill:#82889D;" d="M97.104,216.277L97.104,216.277c-4.875,0-8.828-3.953-8.828-8.828v-26.483
	c0-4.875,3.953-8.828,8.828-8.828l0,0c4.875,0,8.828,3.953,8.828,8.828v26.483C105.932,212.324,101.979,216.277,97.104,216.277z"/>
<circle style="fill:#707487;" cx="423.723" cy="216.275" r="26.48"/>
<path style="fill:#82889D;" d="M423.719,216.277L423.719,216.277c-4.875,0-8.828-3.953-8.828-8.828v-26.483
	c0-4.875,3.953-8.828,8.828-8.828l0,0c4.875,0,8.828,3.953,8.828,8.828v26.483C432.546,212.324,428.594,216.277,423.719,216.277z"/>
<g>
	<path style="fill:#464655;" d="M141.242,242.759H52.966c-4.875,0-8.828-3.953-8.828-8.828v-17.655c0-4.875,3.953-8.828,8.828-8.828
		h88.275c4.875,0,8.828,3.953,8.828,8.828v17.655C150.069,238.807,146.117,242.759,141.242,242.759z"/>
	<path style="fill:#464655;" d="M467.861,242.759h-88.275c-4.875,0-8.828-3.953-8.828-8.828v-17.655
		c0-4.875,3.953-8.828,8.828-8.828h88.275c4.875,0,8.828,3.953,8.828,8.828v17.655C476.689,238.807,472.736,242.759,467.861,242.759
		z"/>
</g>
<g>
</g>
<g>
</g>
<g>
</g>
<g>
</g>
<g>
</g>
<g>
</g>
<g>
</g>
<g>
</g>
<g>
</g>
<g>
</g>
<g>
</g>
<g>
</g>
<g>
</g>
<g>
</g>
<g>
</g>
</svg>
