<?xml version="1.0" encoding="iso-8859-1"?>
<!-- Generator: Adobe Illustrator 19.0.0, SVG Export Plug-In . SVG Version: 6.00 Build 0)  -->
<svg version="1.1" id="Layer_1" xmlns="http://www.w3.org/2000/svg" xmlns:xlink="http://www.w3.org/1999/xlink" x="0px" y="0px"
	 viewBox="0 0 512 512" style="enable-background:new 0 0 512 512;" xml:space="preserve">
<g transform="translate(1 1)">
	<path style="fill:#FFDD09;" d="M474.307,468.333H35.693c-15.36,0-28.16-12.8-28.16-28.16V172.227c0-15.36,12.8-28.16,28.16-28.16
		h438.613c15.36,0,28.16,12.8,28.16,28.16v267.947C502.467,455.533,489.667,468.333,474.307,468.333"/>
	<path style="fill:#FCC309;" d="M502.467,229.4H7.533v-57.173c0-15.36,12.8-28.16,28.16-28.16h438.613
		c15.36,0,28.16,12.8,28.16,28.16V229.4z"/>
	<path style="fill:#FD9808;" d="M474.307,144.067h-25.6c15.36,0,28.16,12.8,28.16,28.16v267.947c0,15.36-12.8,28.16-28.16,28.16
		h25.6c15.36,0,28.16-12.8,28.16-28.16V172.227C502.467,156.867,489.667,144.067,474.307,144.067"/>
	<path style="fill:#FFFFFF;" d="M35.693,144.067h25.6c-15.36,0-28.16,12.8-28.16,28.16v267.947c0,15.36,12.8,28.16,28.16,28.16
		h-25.6c-15.36,0-28.16-12.8-28.16-28.16V172.227C7.533,156.867,20.333,144.067,35.693,144.067"/>
	<g>
		<polygon style="fill:#FFDD09;" points="144.067,144.067 212.333,144.067 212.333,109.933 144.067,109.933 		"/>
		<polygon style="fill:#FFDD09;" points="297.667,144.067 365.933,144.067 365.933,109.933 297.667,109.933 		"/>
	</g>
	<polygon style="fill:#FD9808;" points="340.333,144.067 365.933,144.067 365.933,109.933 340.333,109.933 	"/>
	<path style="fill:#FFDD09;" d="M314.733,87.747v22.187h34.133v-17.92c0-28.16-22.187-50.347-50.347-50.347h-87.04
		c-28.16,0-50.347,22.187-50.347,50.347v17.92h34.133V87.747c0-9.387,9.387-16.213,18.773-11.947
		c26.453,11.093,56.32,11.093,82.773,0C305.347,72.387,314.733,78.36,314.733,87.747"/>
	<path style="fill:#54C9FD;" d="M346.307,417.133H163.693c-5.973,0-11.093-5.12-11.093-11.093v-79.36
		c0-5.973,5.12-11.093,11.093-11.093h181.76c5.973,0,11.093,5.12,11.093,11.093v79.36C357.4,412.013,352.28,417.133,346.307,417.133
		"/>
	<path style="fill:#33A9F8;" d="M346.307,314.733h-25.6c5.973,0,11.093,5.12,11.093,11.093v79.36c0,5.973-5.12,11.093-11.093,11.093
		h25.6c5.973,0,11.093-5.12,11.093-11.093v-79.36C357.4,319.853,352.28,314.733,346.307,314.733"/>
	<g>
		<polygon style="fill:#1CD759;" points="237.933,417.133 340.333,314.733 272.067,314.733 169.667,417.133 		"/>
		<path style="fill:#1CD759;" d="M147.48,272.067h-40.96c-7.68,0-13.653-5.973-13.653-13.653v-58.027
			c0-7.68,5.973-13.653,13.653-13.653h40.96c7.68,0,13.653,5.973,13.653,13.653v58.027
			C161.133,266.093,155.16,272.067,147.48,272.067"/>
		<path style="fill:#1CD759;" d="M403.48,272.067h-40.96c-7.68,0-13.653-5.973-13.653-13.653v-58.027
			c0-7.68,5.973-13.653,13.653-13.653h40.96c7.68,0,13.653,5.973,13.653,13.653v58.027
			C417.133,266.093,411.16,272.067,403.48,272.067"/>
	</g>
	<g>
		<path style="fill:#15A143;" d="M403.48,186.733h-25.6c7.68,0,13.653,5.973,13.653,13.653v58.027
			c0,7.68-5.973,13.653-13.653,13.653h25.6c7.68,0,13.653-5.973,13.653-13.653v-58.027
			C417.133,192.707,411.16,186.733,403.48,186.733"/>
		<path style="fill:#15A143;" d="M147.48,186.733h-25.6c7.68,0,13.653,5.973,13.653,13.653v58.027
			c0,7.68-5.973,13.653-13.653,13.653h25.6c7.68,0,13.653-5.973,13.653-13.653v-58.027
			C161.133,192.707,155.16,186.733,147.48,186.733"/>
	</g>
	<path d="M474.307,476.867H35.693C15.213,476.867-1,460.653-1,440.173V172.227c0-20.48,16.213-36.693,36.693-36.693h438.613
		c20.48,0,36.693,16.213,36.693,36.693v267.947C511,460.653,494.787,476.867,474.307,476.867z M35.693,152.6
		c-11.093,0-19.627,8.533-19.627,19.627v267.947c0,11.093,8.533,19.627,19.627,19.627h438.613c11.093,0,19.627-8.533,19.627-19.627
		V172.227c0-11.093-8.533-19.627-19.627-19.627H35.693z"/>
	<path d="M220.867,152.6h-85.333v-51.2h85.333V152.6z M152.6,135.533h51.2v-17.067h-51.2V135.533z"/>
	<path d="M374.467,152.6h-85.333v-51.2h85.333V152.6z M306.2,135.533h51.2v-17.067h-51.2V135.533z"/>
	<path d="M203.8,87.747v30.72h-51.2V92.013c0-32.427,26.453-58.88,58.88-58.88h87.04c32.427,0,58.88,26.453,58.88,58.88v26.453
		h-51.2v-30.72c0-1.707-1.707-3.413-1.707-3.413c-0.853,0-2.56-1.707-4.267-0.853c-29.013,11.947-68.267,9.387-96.427-2.56
		 M323.267,101.4h17.067v-9.387c0-23.04-18.773-41.813-41.813-41.813h-87.04c-23.04,0-41.813,18.773-41.813,41.813v9.387h17.067
		V87.747c0-7.68,3.413-14.507,9.387-17.92c5.973-4.267,13.653-5.12,20.48-1.707c24.747,10.24,51.2,10.24,75.947,0
		c6.827-2.56,14.507-1.707,20.48,1.707c6.827,4.267,10.24,11.093,10.24,17.92V101.4z"/>
	<path d="M511,237.933H-1v-65.707c0-20.48,16.213-36.693,36.693-36.693h438.613c20.48,0,36.693,16.213,36.693,36.693V237.933z
		 M16.067,220.867h477.867v-48.64c0-11.093-8.533-19.627-19.627-19.627H35.693c-11.093,0-19.627,8.533-19.627,19.627V220.867z"/>
	<path d="M147.48,280.6h-40.96c-11.947,0-22.187-10.24-22.187-22.187v-58.027c0-11.947,10.24-22.187,22.187-22.187h40.96
		c11.947,0,22.187,10.24,22.187,22.187v58.027C169.667,270.36,159.427,280.6,147.48,280.6z M106.52,195.267
		c-2.56,0-5.12,2.56-5.12,5.12v58.027c0,2.56,2.56,5.12,5.12,5.12h40.96c2.56,0,5.12-2.56,5.12-5.12v-58.027
		c0-2.56-2.56-5.12-5.12-5.12C147.48,195.267,106.52,195.267,106.52,195.267z"/>
	<path d="M403.48,280.6h-40.96c-11.947,0-22.187-10.24-22.187-22.187v-58.027c0-11.947,10.24-22.187,22.187-22.187h40.96
		c11.947,0,22.187,10.24,22.187,22.187v58.027C425.667,270.36,415.427,280.6,403.48,280.6z M362.52,195.267
		c-2.56,0-5.12,2.56-5.12,5.12v58.027c0,2.56,2.56,5.12,5.12,5.12h40.96c2.56,0,5.12-2.56,5.12-5.12v-58.027
		c0-2.56-2.56-5.12-5.12-5.12C403.48,195.267,362.52,195.267,362.52,195.267z"/>
	<path d="M346.307,425.667H163.693c-11.093,0-19.627-9.387-19.627-19.627v-79.36c0-11.093,9.387-19.627,19.627-19.627h181.76
		c11.093,0,19.627,9.387,19.627,19.627v79.36C365.933,416.28,356.547,425.667,346.307,425.667z M163.693,323.267
		c-1.707,0-2.56,1.707-2.56,2.56v79.36c0,1.707,1.707,2.56,2.56,2.56h181.76c1.707,0,2.56-1.707,2.56-2.56v-79.36
		c0-1.707-1.707-2.56-2.56-2.56H163.693z"/>
	<path d="M237.933,425.667h-68.267c-3.413,0-6.827-1.707-7.68-5.12c-0.853-3.413-0.853-6.827,1.707-9.387l102.4-102.4
		c1.707-1.707,3.413-2.56,5.973-2.56h68.267c3.413,0,6.827,1.707,7.68,5.12c1.707,3.413,0.853,6.827-1.707,9.387l-102.4,102.4
		C242.2,424.813,240.493,425.667,237.933,425.667z M190.147,408.6h44.373l85.333-85.333H275.48L190.147,408.6z"/>
	<path d="M195.267,374.467c0-5.12,3.413-8.533,8.533-8.533c5.12,0,8.533,3.413,8.533,8.533c0,5.12-3.413,8.533-8.533,8.533
		C198.68,383,195.267,379.587,195.267,374.467"/>
	<path d="M152.6,374.467c0-5.12,3.413-8.533,8.533-8.533c5.12,0,8.533,3.413,8.533,8.533c0,5.12-3.413,8.533-8.533,8.533
		C156.013,383,152.6,379.587,152.6,374.467"/>
	<path d="M203.8,323.267c0-5.12,3.413-8.533,8.533-8.533c5.12,0,8.533,3.413,8.533,8.533c0,5.12-3.413,8.533-8.533,8.533
		C207.213,331.8,203.8,328.387,203.8,323.267"/>
	<path d="M152.6,323.267c0-5.12,3.413-8.533,8.533-8.533c5.12,0,8.533,3.413,8.533,8.533c0,5.12-3.413,8.533-8.533,8.533
		C156.013,331.8,152.6,328.387,152.6,323.267"/>
	<path d="M178.2,348.867c0-5.12,3.413-8.533,8.533-8.533c5.12,0,8.533,3.413,8.533,8.533c0,5.12-3.413,8.533-8.533,8.533
		C181.613,357.4,178.2,353.987,178.2,348.867"/>
	<path d="M220.867,348.867c0-5.12,3.413-8.533,8.533-8.533c5.12,0,8.533,3.413,8.533,8.533c0,5.12-3.413,8.533-8.533,8.533
		C224.28,357.4,220.867,353.987,220.867,348.867"/>
	<path d="M314.733,357.4c0,5.12-3.413,8.533-8.533,8.533s-8.533-3.413-8.533-8.533s3.413-8.533,8.533-8.533
		S314.733,352.28,314.733,357.4"/>
	<path d="M357.4,357.4c0,5.12-3.413,8.533-8.533,8.533c-5.12,0-8.533-3.413-8.533-8.533s3.413-8.533,8.533-8.533
		C353.987,348.867,357.4,352.28,357.4,357.4"/>
	<path d="M306.2,408.6c0,5.12-3.413,8.533-8.533,8.533s-8.533-3.413-8.533-8.533c0-5.12,3.413-8.533,8.533-8.533
		S306.2,403.48,306.2,408.6"/>
	<path d="M357.4,408.6c0,5.12-3.413,8.533-8.533,8.533c-5.12,0-8.533-3.413-8.533-8.533c0-5.12,3.413-8.533,8.533-8.533
		C353.987,400.067,357.4,403.48,357.4,408.6"/>
	<path d="M331.8,383c0,5.12-3.413,8.533-8.533,8.533c-5.12,0-8.533-3.413-8.533-8.533c0-5.12,3.413-8.533,8.533-8.533
		C328.387,374.467,331.8,377.88,331.8,383"/>
	<path d="M289.133,383c0,5.12-3.413,8.533-8.533,8.533s-8.533-3.413-8.533-8.533c0-5.12,3.413-8.533,8.533-8.533
		S289.133,377.88,289.133,383"/>
</g>
<g>
</g>
<g>
</g>
<g>
</g>
<g>
</g>
<g>
</g>
<g>
</g>
<g>
</g>
<g>
</g>
<g>
</g>
<g>
</g>
<g>
</g>
<g>
</g>
<g>
</g>
<g>
</g>
<g>
</g>
</svg>
