<?xml version="1.0" encoding="iso-8859-1"?>
<!-- Generator: Adobe Illustrator 19.0.0, SVG Export Plug-In . SVG Version: 6.00 Build 0)  -->
<svg version="1.1" id="Capa_1" xmlns="http://www.w3.org/2000/svg" xmlns:xlink="http://www.w3.org/1999/xlink" x="0px" y="0px"
	 viewBox="0 0 426.667 426.667" style="enable-background:new 0 0 426.667 426.667;" xml:space="preserve">
<rect y="84.034" style="fill:#FCD462;" width="300.587" height="222.677"/>
<rect y="185.427" style="fill:#F6C358;" width="300.587" height="121.284"/>
<path style="fill:#DC8744;" d="M424.589,219.115l-31.523-50.36c-1.943-3.106-5.349-4.992-9.013-4.992H300.59v142.963h121.336
	c2.619,0,4.741-2.122,4.741-4.741v-75.635C426.667,223.792,425.946,221.284,424.589,219.115z"/>
<polygon style="fill:#2D93BA;" points="334.039,178.904 373.572,178.904 396.479,213.23 396.479,243.014 334.039,243.014 "/>
<polygon style="fill:#27A2DB;" points="396.479,213.23 373.572,178.904 334.039,178.904 334.039,199.026 "/>
<g>
	<rect y="276.009" style="fill:#64798A;" width="300.587" height="30.699"/>
	<path style="fill:#64798A;" d="M424.136,306.706h-33.44v-32.304h35.97v29.774C426.667,305.574,425.534,306.706,424.136,306.706z"/>
</g>
<circle style="fill:#2F4859;" cx="340.608" cy="306.729" r="35.904"/>
<circle style="fill:#D5D6DB;" cx="340.608" cy="306.729" r="23.326"/>
<circle style="fill:#2F4859;" cx="88.367" cy="306.729" r="35.904"/>
<g>
	<circle style="fill:#D5D6DB;" cx="88.367" cy="306.729" r="23.326"/>
	<path style="fill:#D5D6DB;" d="M417.717,248.742c-3.572,0-6.468,2.896-6.468,6.468v4.704c0,3.572,2.896,6.468,6.468,6.468h8.949
		v-17.641H417.717z"/>
</g>
<path style="fill:#E56353;" d="M8.949,248.742H0v17.641h8.949c3.572,0,6.469-2.896,6.469-6.468v-4.704
	C15.418,251.638,12.522,248.742,8.949,248.742z"/>
<g>
</g>
<g>
</g>
<g>
</g>
<g>
</g>
<g>
</g>
<g>
</g>
<g>
</g>
<g>
</g>
<g>
</g>
<g>
</g>
<g>
</g>
<g>
</g>
<g>
</g>
<g>
</g>
<g>
</g>
</svg>
