<?xml version="1.0" encoding="iso-8859-1"?>
<!-- Generator: Adobe Illustrator 19.0.0, SVG Export Plug-In . SVG Version: 6.00 Build 0)  -->
<svg version="1.1" id="Capa_1" xmlns="http://www.w3.org/2000/svg" xmlns:xlink="http://www.w3.org/1999/xlink" x="0px" y="0px"
	 viewBox="0 0 426.68 426.68" style="enable-background:new 0 0 426.68 426.68;" xml:space="preserve">
<path style="fill:#3A556A;" d="M310.869,174.778c-0.306-0.342-31.394-34.25-57.402-32.719l-0.559-9.207
	c30.935-1.811,63.446,34.232,64.825,35.763L310.869,174.778z"/>
<path style="fill:#D5D6DB;" d="M375.135,186.882c0,0-4.612-61.498-72.259-93.784l-31.518,23.83l40.742,46.123
	c0,0-14.987,28.191-43.817,3.075c-1.049-0.914-2.428-2.462-3.91-4.273c-6.909-8.444-17.293-13.324-28.203-13.2l-38.701,0.44
	c-6.724,0.076-13.027,3.286-17.043,8.68l-20.532,27.572l-50.736-0.769L84.275,153.64c-2.256-2.805-5.64-4.465-9.238-4.534H0
	c0,0,3.858,30.783,50.735,40.082c25.563,5.07,77.999,13.841,83.022,63.035c1.23,12.045,0,48.43,0,48.43h13.837h138.369
	C285.963,300.652,279.813,203.793,375.135,186.882z"/>
<path style="fill:#DC8744;" d="M271.358,116.928l72.089,79.947c0,0,14.337-6.984,31.688-9.993c0,0-0.769-58.423-72.26-93.784
	L271.358,116.928z"/>
<path style="fill:#E56353;" d="M302.79,172.907c0,0,39.996-53.716,49.11,20.314c0,0-39.521,17.089-52.398,46.544l-147.929,2.955
	c-7.671,0.153-13.972-6.023-13.972-13.696v0c0-7.566,6.133-13.699,13.699-13.699h0c4.322,0,7.825-3.504,7.825-7.825v-22.155
	l17.107-21.94c9.886-14.405,16.231-13.999,27.178-14.378h33.828c5.289-0.183,10.846,0.537,15.303,3.389
	c0,0,18.817,11.772,26.504,19.092C283.351,175.608,302.79,172.907,302.79,172.907z"/>
<path style="fill:#3A556A;" d="M279.344,110.89l23.531-17.792c0,0,40.166,18.353,55.983,47.781l-28.79,10.642L279.344,110.89z"/>
<polygon style="fill:#64798A;" points="291.897,101.399 287.62,104.632 323.246,137.396 328.339,133.36 "/>
<ellipse transform="matrix(-0.4817 -0.8763 0.8763 -0.4817 393.9357 553.855)" style="fill:#FCD462;" cx="360.75" cy="160.436" rx="16.09" ry="7.543"/>
<ellipse transform="matrix(-0.4817 -0.8763 0.8763 -0.4817 395.1858 554.6202)" style="fill:#F6C358;" cx="361.6" cy="160.449" rx="11.341" ry="5.316"/>
<polygon style="fill:#3A556A;" points="87.589,157.76 109.101,185.471 159.068,185.471 181.265,157.634 "/>
<path style="fill:#D15241;" d="M253.544,130.974c-2.26-0.373-4.394,1.157-4.768,3.417l-1.178,7.135
	c-0.374,2.26,1.157,4.395,3.417,4.768l23.591,3.895l2.529-15.32L253.544,130.974z"/>
<circle style="fill:#2F4859;" cx="368.811" cy="275.713" r="57.869"/>
<circle style="fill:#D5D6DB;" cx="368.811" cy="275.713" r="37.598"/>
<circle style="fill:#3A556A;" cx="368.811" cy="275.713" r="16.218"/>
<circle style="fill:#2F4859;" cx="57.869" cy="275.713" r="57.869"/>
<circle style="fill:#D5D6DB;" cx="57.869" cy="275.713" r="37.598"/>
<circle style="fill:#3A556A;" cx="57.869" cy="275.713" r="16.218"/>
<path style="fill:#D15241;" d="M4.844,161.352c0,0,10.644,15.921,24.646,21.526h11.243l-19.602-21.526H4.844z"/>
<g>
	<rect x="55.437" y="266.454" style="fill:#3A556A;" width="78.844" height="18.449"/>
	
		<rect x="327.761" y="213.44" transform="matrix(-0.5858 0.8105 -0.8105 -0.5858 739.1829 127.5822)" style="fill:#3A556A;" width="18.453" height="78.494"/>
</g>
<ellipse style="fill:#FCD462;" cx="219.179" cy="151.77" rx="17.681" ry="2.773"/>
<g>
</g>
<g>
</g>
<g>
</g>
<g>
</g>
<g>
</g>
<g>
</g>
<g>
</g>
<g>
</g>
<g>
</g>
<g>
</g>
<g>
</g>
<g>
</g>
<g>
</g>
<g>
</g>
<g>
</g>
</svg>
