<?xml version="1.0" encoding="iso-8859-1"?>
<!-- Generator: Adobe Illustrator 19.0.0, SVG Export Plug-In . SVG Version: 6.00 Build 0)  -->
<svg version="1.1" id="Layer_1" xmlns="http://www.w3.org/2000/svg" xmlns:xlink="http://www.w3.org/1999/xlink" x="0px" y="0px"
	 viewBox="0 0 508 508" style="enable-background:new 0 0 508 508;" xml:space="preserve">
<path style="fill:#FD8469;" d="M508,254c0,140.3-113.7,254-254,254S0,394.3,0,254S113.7,0,254,0c110.8,0,204.9,70.9,239.7,169.7
	c7.5,21.2,12.2,43.6,13.7,66.9C507.8,242.4,508,248.2,508,254z"/>
<path style="fill:#F1543F;" d="M54.2,410.7C100.7,469.9,172.9,508,254,508s153.3-38.1,199.8-97.3H54.2z"/>
<g>
	<path style="fill:#2B3B4E;" d="M359.8,356.2H335c-1.7,0-3.2,1.3-3.2-1.3v48.6c0,3.4,3,6.1,6.7,6.1h17.8c3.7,0,6.7-2.7,6.7-6.1V355
		C363,357.5,361.6,356.2,359.8,356.2z"/>
	<path style="fill:#2B3B4E;" d="M324.3,356.2h-24.9c-1.7,0-3.2,1.3-3.2-1.3v48.6c0,3.4,3,6.1,6.7,6.1h17.8c3.7,0,6.7-2.7,6.7-6.1
		V355C327.4,357.5,326,356.2,324.3,356.2z"/>
</g>
<rect x="289.1" y="345" style="fill:#324A5E;" width="81" height="37.3"/>
<g>
	<path style="fill:#2B3B4E;" d="M208.6,356.2h-24.9c-1.7,0-3.2,1.3-3.2-1.3v48.6c0,3.4,3,6.1,6.7,6.1H205c3.7,0,6.7-2.7,6.7-6.1V355
		C211.7,357.5,210.3,356.2,208.6,356.2z"/>
	<path style="fill:#2B3B4E;" d="M173,356.2h-24.9c-1.7,0-3.2,1.3-3.2-1.3v48.6c0,3.4,3,6.1,6.7,6.1h17.8c3.7,0,6.7-2.7,6.7-6.1V355
		C176.2,357.5,174.8,356.2,173,356.2z"/>
</g>
<rect x="137.9" y="345" style="fill:#324A5E;" width="81" height="37.3"/>
<g>
	<path style="fill:#E6E9EE;" d="M370.1,330.5V117.9c0-4.6-4.1-8.4-9.1-8.4H147c-5,0-9.1,3.7-9.1,8.4v212.6H370.1z"/>
	<path style="fill:#E6E9EE;" d="M370.1,355V132.8c0-4.8-4.1-8.7-9.1-8.7H147c-5,0-9.1,3.9-9.1,8.7V355H370.1z"/>
</g>
<rect x="150.8" y="127.4" style="fill:#324A5E;" width="206.3" height="203.1"/>
<g>
	<rect x="357.2" y="127.4" style="fill:#FFFFFF;" width="82.9" height="203.1"/>
	<rect x="67.9" y="127.4" style="fill:#FFFFFF;" width="82.9" height="203.1"/>
</g>
<g>
	<path style="fill:#FFD05B;" d="M217.5,330.5h-63.9c-0.8,0-1.4-0.6-1.4-1.4v-56.2c0-0.8,0.6-1.4,1.4-1.4h63.9c0.8,0,1.4,0.6,1.4,1.4
		v56.2C218.9,329.9,218.3,330.5,217.5,330.5z"/>
	<path style="fill:#FFD05B;" d="M286,330.5h-64c-0.8,0-1.4-0.6-1.4-1.4v-56.2c0-0.8,0.6-1.4,1.4-1.4h64c0.8,0,1.4,0.6,1.4,1.4v56.2
		C287.4,329.9,286.7,330.5,286,330.5z"/>
	<path style="fill:#FFD05B;" d="M354.4,330.5h-63.9c-0.8,0-1.4-0.6-1.4-1.4v-56.2c0-0.8,0.6-1.4,1.4-1.4h63.9c0.8,0,1.4,0.6,1.4,1.4
		v56.2C355.9,329.9,355.2,330.5,354.4,330.5z"/>
</g>
<g>
	<path style="fill:#F9B54C;" d="M217.5,268.4h-63.9c-0.8,0-1.4-0.6-1.4-1.4v-56.2c0-0.8,0.6-1.4,1.4-1.4h63.9c0.8,0,1.4,0.6,1.4,1.4
		V267C218.9,267.8,218.3,268.4,217.5,268.4z"/>
	<path style="fill:#F9B54C;" d="M286,268.4h-64c-0.8,0-1.4-0.6-1.4-1.4v-56.2c0-0.8,0.6-1.4,1.4-1.4h64c0.8,0,1.4,0.6,1.4,1.4V267
		C287.4,267.8,286.7,268.4,286,268.4z"/>
	<path style="fill:#F9B54C;" d="M354.4,268.4h-63.9c-0.8,0-1.4-0.6-1.4-1.4v-56.2c0-0.8,0.6-1.4,1.4-1.4h63.9c0.8,0,1.4,0.6,1.4,1.4
		V267C355.9,267.8,355.2,268.4,354.4,268.4z"/>
	<path style="fill:#F9B54C;" d="M217.5,206.3h-63.9c-0.8,0-1.4-0.6-1.4-1.4v-56.2c0-0.8,0.6-1.4,1.4-1.4h63.9c0.8,0,1.4,0.6,1.4,1.4
		v56.2C218.9,205.7,218.3,206.3,217.5,206.3z"/>
</g>
<g>
	<path style="fill:#FF7058;" d="M362.7,357.7h-22.2c-0.7,0-1.3-0.6-1.3-1.3v-11.8c0-0.7,0.6-1.3,1.3-1.3h22.2c0.7,0,1.3,0.6,1.3,1.3
		v11.8C364,357.1,363.4,357.7,362.7,357.7z"/>
	<path style="fill:#FF7058;" d="M329.5,357.7h-22.2c-0.7,0-1.3-0.6-1.3-1.3v-11.8c0-0.7,0.6-1.3,1.3-1.3h22.2c0.7,0,1.3,0.6,1.3,1.3
		v11.8C330.8,357.1,330.2,357.7,329.5,357.7z"/>
	<path style="fill:#FF7058;" d="M200.7,357.7h-22.2c-0.7,0-1.3-0.6-1.3-1.3v-11.8c0-0.7,0.6-1.3,1.3-1.3h22.2c0.7,0,1.3,0.6,1.3,1.3
		v11.8C202,357.1,201.4,357.7,200.7,357.7z"/>
	<path style="fill:#FF7058;" d="M167.5,357.7h-22.2c-0.7,0-1.3-0.6-1.3-1.3v-11.8c0-0.7,0.6-1.3,1.3-1.3h22.2c0.7,0,1.3,0.6,1.3,1.3
		v11.8C168.8,357.1,168.2,357.7,167.5,357.7z"/>
</g>
<g>
</g>
<g>
</g>
<g>
</g>
<g>
</g>
<g>
</g>
<g>
</g>
<g>
</g>
<g>
</g>
<g>
</g>
<g>
</g>
<g>
</g>
<g>
</g>
<g>
</g>
<g>
</g>
<g>
</g>
</svg>
